<svg width="15" height="15" fill="none" xmlns="http://www.w3.org/2000/svg"><path d="M3.244.503A2.75 2.75 0 00.502 3.246v8.51a2.75 2.75 0 002.742 2.741h8.51a2.75 2.75 0 002.742-2.742v-8.51A2.75 2.75 0 0011.754.504h-8.51zm.69 2.31c.723 0 1.168.474 1.182 1.098 0 .61-.459 1.099-1.196 1.099h-.014c-.709 0-1.167-.488-1.167-1.099 0-.624.472-1.098 1.195-1.098zm6.231 2.916c1.39 0 2.433.909 2.433 2.862v3.646h-2.113V8.836c0-.855-.306-1.438-1.07-1.438-.585 0-.933.393-1.086.772-.055.136-.07.326-.07.516v3.551H6.148s.027-5.762 0-6.359H8.26v.9c.281-.433.784-1.049 1.905-1.049zm-7.302.15h2.114v6.358H2.863V5.88z" fill="#8D93B1"/></svg>