<svg width="15" height="15" fill="none" xmlns="http://www.w3.org/2000/svg"><path d="M10.602.545c.71.033 1.202.137 1.656.313.43.161.82.415 1.14.743.33.321.583.711.744 1.141.176.455.28.945.313 1.656.04.88.045 1.191.045 3.102 0 1.911-.005 2.221-.045 3.102-.033.71-.137 1.202-.313 1.656-.161.43-.415.82-.743 1.14-.321.33-.711.583-1.141.744-.455.176-.945.28-1.656.313-.88.04-1.19.045-3.102.045s-2.222-.005-3.102-.045c-.71-.033-1.202-.137-1.656-.313a3.124 3.124 0 01-1.14-.743 3.127 3.127 0 01-.744-1.141c-.176-.455-.28-.945-.313-1.656C.505 9.722.5 9.412.5 7.5s.005-2.223.045-3.102c.033-.71.137-1.202.313-1.656.161-.43.415-.82.743-1.14a3.11 3.11 0 011.14-.744c.456-.176.946-.28 1.657-.313C5.278.505 5.588.5 7.5.5s2.223.005 3.102.045zM7.5 2.055c-1.89 0-2.18.005-3.032.044-.54.024-.865.093-1.163.21a1.591 1.591 0 00-.604.392 1.58 1.58 0 00-.393.604c-.115.298-.185.623-.21 1.163-.038.853-.042 1.142-.042 3.032 0 1.89.004 2.18.043 3.032.024.54.093.865.21 1.162.099.254.204.416.392.605.189.19.35.294.604.393.298.115.623.185 1.163.21.853.038 1.143.042 3.032.042 1.89 0 2.179-.004 3.032-.043.54-.024.865-.093 1.163-.21.253-.099.415-.204.604-.392a1.58 1.58 0 00.393-.604c.115-.298.185-.623.21-1.163.038-.853.042-1.143.042-3.032 0-1.89-.004-2.179-.043-3.032-.024-.54-.093-.865-.21-1.162A1.58 1.58 0 0012.3 2.7a1.58 1.58 0 00-.605-.393c-.297-.115-.622-.185-1.163-.21-.852-.038-1.142-.042-3.032-.042zm0 9.075a3.63 3.63 0 110-7.26 3.63 3.63 0 010 7.26zm0-1.556a2.074 2.074 0 100-4.148 2.074 2.074 0 000 4.148zm3.63-4.926a.778.778 0 110-1.555.778.778 0 010 1.555z" fill="#8D93B1"/></svg>