<svg width="24" height="24" fill="none" xmlns="http://www.w3.org/2000/svg"><path fill-rule="evenodd" clip-rule="evenodd" d="M23.158 18.602a3 3 0 01-3 2.957H3.839A3 3 0 01.84 18.625V5.36a3 3 0 012.884-2.92h16.55a3 3 0 012.884 2.955v13.206zM2.297 5.377c0-.857.646-1.48 1.358-1.48h16.689c.711 0 1.357.623 1.357 1.48v13.247c0 .857-.646 1.48-1.357 1.48H3.654c-.71 0-1.357-.623-1.357-1.48V5.377zM9.764 7.96c-2.117 0-3.708 1.883-3.708 4.04 0 2.158 1.59 4.041 3.708 4.041a3.5 3.5 0 002.234-.814 3.479 3.479 0 002.237.814c2.117 0 3.709-1.883 3.709-4.04 0-2.158-1.591-4.04-3.71-4.04-.853 0-1.621.305-2.234.812a3.62 3.62 0 00-.673-.438 3.51 3.51 0 00-1.56-.375h-.003zm.762 4.04c0-.758.197-1.483.545-2.105a2.161 2.161 0 00-.398-.258 2.053 2.053 0 00-.91-.22c-1.172.002-2.25 1.084-2.25 2.584s1.079 2.583 2.251 2.583c.478 0 .93-.172 1.306-.48a4.318 4.318 0 01-.544-2.103zm3.709 2.584c-.56 0-1.097-.246-1.507-.666v-3.834c.41-.42.948-.666 1.507-.666 1.172 0 2.251 1.082 2.251 2.583 0 1.5-1.079 2.583-2.251 2.583z" fill="#8D93B1"/></svg>