<svg width="24" height="25" fill="none" xmlns="http://www.w3.org/2000/svg"><path fill-rule="evenodd" clip-rule="evenodd" d="M12 1.879l2.95.047c.562.009 1.069.017 1.495.065.466.052.928.16 1.38.42.451.26.775.607 1.053.984.255.346.515.78.804 1.263l1.516 2.531 1.434 2.579c.273.491.52.934.692 1.327.187.43.325.884.325 1.405s-.138.975-.325 1.405c-.172.393-.419.836-.692 1.327l-1.434 2.579-1.516 2.53c-.29.484-.55.918-.804 1.264-.278.377-.602.723-1.053.984-.452.26-.914.368-1.38.42-.426.048-.933.056-1.495.065l-2.95.047-2.95-.047c-.563-.009-1.07-.017-1.496-.065-.466-.052-.928-.16-1.38-.42-.45-.26-.775-.607-1.053-.984-.254-.346-.515-.78-.804-1.263L2.801 17.81l-1.434-2.579c-.273-.491-.52-.934-.692-1.327C.488 13.475.35 13.02.35 12.5s.138-.975.325-1.405c.172-.393.419-.836.692-1.327l1.434-2.579 1.49-2.487.026-.044c.29-.483.55-.917.804-1.263.278-.377.602-.723 1.054-.984.451-.26.913-.368 1.379-.42.426-.048.933-.056 1.496-.065L12 1.879zm0 2.498l-2.86.046c-.63.01-1.015.017-1.308.05-.266.03-.358.072-.408.101-.05.029-.133.088-.292.303-.175.238-.374.568-.698 1.109l-1.47 2.453-1.389 2.498c-.306.551-.493.889-.61 1.159-.108.245-.117.346-.117.404 0 .058.009.159.116.404.118.27.305.608.611 1.159l1.39 2.498 1.469 2.453c.324.541.523.871.698 1.109.159.215.242.274.292.303.05.029.142.071.408.1.293.034.679.041 1.309.051l2.858.046 2.86-.046c.63-.01 1.015-.017 1.308-.05.266-.03.359-.072.409-.101.05-.029.132-.088.291-.303.175-.238.374-.568.698-1.109l1.47-2.453 1.389-2.498c.306-.55.493-.889.61-1.159.108-.245.118-.346.118-.404 0-.058-.01-.159-.117-.404-.118-.27-.305-.608-.611-1.159l-1.39-2.498-1.469-2.453c-.324-.541-.523-.871-.698-1.109-.159-.215-.241-.274-.291-.303-.05-.029-.143-.071-.409-.1-.293-.034-.679-.041-1.309-.051L12 4.377zm-.001 6.155a1.968 1.968 0 100 3.936 1.968 1.968 0 000-3.936zM7.533 12.5a4.466 4.466 0 118.932 0 4.466 4.466 0 01-8.932 0z" fill="#8264F5"/></svg>