<svg width="14" height="11" fill="none" xmlns="http://www.w3.org/2000/svg"><path d="M13.292 1.38a5.44 5.44 0 01-1.56.427c.567-.34.992-.874 1.194-1.503a5.426 5.426 0 01-1.725.659 2.718 2.718 0 00-4.63 2.479A7.717 7.717 0 01.968.602a2.716 2.716 0 00-.047 2.649c.211.395.516.731.888.98a2.71 2.71 0 01-1.23-.34v.034A2.718 2.718 0 002.76 6.59c-.4.108-.82.124-1.228.047a2.719 2.719 0 002.539 1.886A5.453 5.453 0 01.047 9.65a7.685 7.685 0 004.165 1.221c4.999 0 7.732-4.14 7.732-7.731 0-.117-.003-.235-.008-.352.531-.384.99-.86 1.355-1.405l.001-.002z" fill="#8D93B1"/></svg>